<svg width="40" height="40" viewBox="0 0 40 40" fill="none" xmlns="http://www.w3.org/2000/svg">
<path fill-rule="evenodd" clip-rule="evenodd" d="M3.41563 4.9375C2.98479 4.9375 2.64062 5.28816 2.64062 5.699V27.9104C2.64062 28.3212 2.98479 28.6719 3.41563 28.6719H36.5844C37.0152 28.6719 37.3594 28.3212 37.3594 27.9104V5.699C37.3594 5.28816 37.0152 4.9375 36.5844 4.9375H3.41563ZM1.14062 5.699C1.14062 4.44719 2.16896 3.4375 3.41563 3.4375H36.5844C37.831 3.4375 38.8594 4.44719 38.8594 5.699V27.9104C38.8594 29.1622 37.831 30.1719 36.5844 30.1719H3.41563C2.16896 30.1719 1.14062 29.1622 1.14062 27.9104V5.699Z" fill="#0074A3"/>
<path fill-rule="evenodd" clip-rule="evenodd" d="M10.9375 35.3594C10.9375 34.9452 11.2733 34.6094 11.6875 34.6094H27.7188C28.133 34.6094 28.4688 34.9452 28.4688 35.3594C28.4688 35.7736 28.133 36.1094 27.7188 36.1094H11.6875C11.2733 36.1094 10.9375 35.7736 10.9375 35.3594Z" fill="#0074A3"/>
<path fill-rule="evenodd" clip-rule="evenodd" d="M24.0078 28.6719C24.422 28.6719 24.7578 29.0077 24.7578 29.4219V35.3594C24.7578 35.7736 24.422 36.1094 24.0078 36.1094C23.5936 36.1094 23.2578 35.7736 23.2578 35.3594V29.4219C23.2578 29.0077 23.5936 28.6719 24.0078 28.6719Z" fill="#0074A3"/>
<path fill-rule="evenodd" clip-rule="evenodd" d="M15.9922 28.6719C16.4064 28.6719 16.7422 29.0077 16.7422 29.4219V35.3594C16.7422 35.7736 16.4064 36.1094 15.9922 36.1094C15.578 36.1094 15.2422 35.7736 15.2422 35.3594V29.4219C15.2422 29.0077 15.578 28.6719 15.9922 28.6719Z" fill="#0074A3"/>
<mask id="mask0" mask-type="alpha" maskUnits="userSpaceOnUse" x="1" y="3" width="38" height="34">
<path fill-rule="evenodd" clip-rule="evenodd" d="M1 36.25H39V3H1V36.25Z" fill="white"/>
</mask>
<g mask="url(#mask0)">
<path fill-rule="evenodd" clip-rule="evenodd" d="M6 25.5H35V8.5H6V25.5Z" fill="#D7EFF6"/>
<path fill-rule="evenodd" clip-rule="evenodd" d="M18 14.0127V18.6281C18 19.0309 18.4191 19.2759 18.7405 19.0609L21.9311 16.7969C22.219 16.6041 22.2335 16.1649 21.959 15.9514L18.7684 13.6C18.4495 13.3521 18 13.5935 18 14.0127Z" fill="#0074A3"/>
<path fill-rule="evenodd" clip-rule="evenodd" d="M5.25 24.9688C5.25 24.6926 5.47386 24.4688 5.75 24.4688H33.3594C33.6355 24.4688 33.8594 24.6926 33.8594 24.9688C33.8594 25.2449 33.6355 25.4688 33.3594 25.4688H5.75C5.47386 25.4688 5.25 25.2449 5.25 24.9688Z" fill="#0074A3"/>
<path fill-rule="evenodd" clip-rule="evenodd" d="M27.5703 22.6875C27.8465 22.6875 28.0703 22.9114 28.0703 23.1875V26.1562C28.0703 26.4324 27.8465 26.6562 27.5703 26.6562C27.2942 26.6562 27.0703 26.4324 27.0703 26.1562V23.1875C27.0703 22.9114 27.2942 22.6875 27.5703 22.6875Z" fill="#0074A3"/>
</g>
</svg>
